# xmcd CD database file
#
# Track frame offsets:
#	150
#	16710
#	26812
#	39451
#	52230
#	68411
#	84012
#	93776
#	108930
#	121753
#	135063
#	144402
#	157119
#	167339
#	176209
#
# Disc length: 2506 seconds
#
# Revision: 0
# Processed by: cddbd v1.5.2PL0 Copyright (c) Steve Scherf et al.
# Submitted via: CDex 1.70beta2
#
DISCID=ac09c80f
DTITLE=The Hopkins Family - The Hills of Tennessee
DYEAR=2006
DGENRE=Country
TTITLE0=Hills of Tennessee
TTITLE1=The Girl from Ooltewah
TTITLE2=Greenbriar County Line
TTITLE3=Singin' Cowboy
TTITLE4=Tomorrow's Gonna Be Better Than Today
TTITLE5=Cold WinterRain
TTITLE6=Blue Cowboy
TTITLE7=Ladies' Home Companion
TTITLE8=Warrior Brave
TTITLE9=Rainy Monday Night in Jackson
TTITLE10=Cumberland Plateau
TTITLE11=Low Country Waltz
TTITLE12=Freedom
TTITLE13=Good Times are Comin' Your Way
TTITLE14=7:20 to Saint Jo
EXTD=YEAR: 2006
EXTT0=
EXTT1=
EXTT2=
EXTT3=
EXTT4=
EXTT5=
EXTT6=
EXTT7=
EXTT8=
EXTT9=
EXTT10=
EXTT11=
EXTT12=
EXTT13=
EXTT14=
PLAYORDER=
